<svg width="50" height="26" viewBox="0 0 50 26" fill="none" xmlns="http://www.w3.org/2000/svg">
<path d="M10.2 25.384C8.30133 25.384 6.62667 24.872 5.176 23.848C3.74667 22.824 2.62667 21.384 1.816 19.528C1.00533 17.672 0.6 15.5173 0.6 13.064C0.6 10.5893 0.994667 8.43467 1.784 6.6C2.59467 4.76533 3.71467 3.336 5.144 2.312C6.59467 1.288 8.26933 0.775999 10.168 0.775999C12.1093 0.775999 13.7947 1.288 15.224 2.312C16.6747 3.336 17.7947 4.776 18.584 6.632C19.3947 8.46667 19.8 10.6107 19.8 13.064C19.8 15.5173 19.3947 17.672 18.584 19.528C17.7947 21.3627 16.6747 22.8027 15.224 23.848C13.7947 24.872 12.12 25.384 10.2 25.384ZM10.232 20.904C11.2133 20.904 12.0453 20.5947 12.728 19.976C13.4107 19.3573 13.9333 18.4613 14.296 17.288C14.6587 16.1147 14.84 14.7067 14.84 13.064C14.84 11.4213 14.6587 10.024 14.296 8.872C13.9333 7.69867 13.4 6.80267 12.696 6.184C12.0133 5.56533 11.1707 5.256 10.168 5.256C9.18667 5.256 8.35467 5.56533 7.672 6.184C6.98933 6.80267 6.46667 7.69867 6.104 8.872C5.74133 10.024 5.56 11.4213 5.56 13.064C5.56 14.6853 5.74133 16.0827 6.104 17.256C6.46667 18.4293 6.98933 19.336 7.672 19.976C8.376 20.5947 9.22933 20.904 10.232 20.904ZM22.7503 25V21.16L29.1503 14.568C30.4089 13.2667 31.3583 12.2427 31.9983 11.496C32.6596 10.728 33.1076 10.088 33.3423 9.576C33.5983 9.064 33.7263 8.56267 33.7263 8.072C33.7263 7.19733 33.4383 6.51466 32.8623 6.024C32.3076 5.512 31.6036 5.256 30.7503 5.256C29.8756 5.256 29.0969 5.512 28.4143 6.024C27.7316 6.51466 27.2303 7.272 26.9103 8.296L22.5903 6.888C22.8463 5.65067 23.3796 4.57333 24.1903 3.656C25.0009 2.73867 25.9823 2.03467 27.1343 1.544C28.2863 1.032 29.4916 0.775999 30.7503 0.775999C32.3289 0.775999 33.7156 1.05333 34.9103 1.608C36.1049 2.16267 37.0329 2.94133 37.6943 3.944C38.3556 4.94667 38.6863 6.12 38.6863 7.464C38.6863 8.31733 38.5369 9.16 38.2383 9.992C37.9396 10.8027 37.4809 11.6347 36.8623 12.488C36.2649 13.32 35.4863 14.2267 34.5263 15.208L29.0543 20.84H38.9103V25H22.7503ZM44.5968 25V20.2H49.3968V25H44.5968Z" fill="#A9C2CB"/>
</svg>
