<svg width="50" height="26" viewBox="0 0 50 26" fill="none" xmlns="http://www.w3.org/2000/svg">
<path d="M10.2 25.384C8.30133 25.384 6.62667 24.872 5.176 23.848C3.74667 22.824 2.62667 21.384 1.816 19.528C1.00533 17.672 0.6 15.5173 0.6 13.064C0.6 10.5893 0.994667 8.43467 1.784 6.6C2.59467 4.76533 3.71467 3.336 5.144 2.312C6.59467 1.288 8.26933 0.775999 10.168 0.775999C12.1093 0.775999 13.7947 1.288 15.224 2.312C16.6747 3.336 17.7947 4.776 18.584 6.632C19.3947 8.46667 19.8 10.6107 19.8 13.064C19.8 15.5173 19.3947 17.672 18.584 19.528C17.7947 21.3627 16.6747 22.8027 15.224 23.848C13.7947 24.872 12.12 25.384 10.2 25.384ZM10.232 20.904C11.2133 20.904 12.0453 20.5947 12.728 19.976C13.4107 19.3573 13.9333 18.4613 14.296 17.288C14.6587 16.1147 14.84 14.7067 14.84 13.064C14.84 11.4213 14.6587 10.024 14.296 8.872C13.9333 7.69867 13.4 6.80267 12.696 6.184C12.0133 5.56533 11.1707 5.256 10.168 5.256C9.18667 5.256 8.35467 5.56533 7.672 6.184C6.98933 6.80267 6.46667 7.69867 6.104 8.872C5.74133 10.024 5.56 11.4213 5.56 13.064C5.56 14.6853 5.74133 16.0827 6.104 17.256C6.46667 18.4293 6.98933 19.336 7.672 19.976C8.376 20.5947 9.22933 20.904 10.232 20.904ZM30.7503 25.384C29.4276 25.384 28.1689 25.1387 26.9743 24.648C25.7796 24.136 24.7663 23.4213 23.9343 22.504C23.1023 21.5867 22.5476 20.5093 22.2703 19.272L26.6543 17.8C27.0169 18.824 27.5503 19.6027 28.2543 20.136C28.9583 20.648 29.7903 20.904 30.7503 20.904C31.5396 20.904 32.2116 20.7547 32.7663 20.456C33.3423 20.1573 33.7903 19.7413 34.1103 19.208C34.4303 18.6533 34.5903 18.0133 34.5903 17.288C34.5903 16.5627 34.4303 15.944 34.1103 15.432C33.8116 14.8987 33.3743 14.4933 32.7983 14.216C32.2436 13.9173 31.5609 13.768 30.7503 13.768C30.2809 13.768 29.8116 13.8213 29.3423 13.928C28.8729 14.0347 28.4463 14.184 28.0623 14.376L26.9103 11.976L33.0223 5.32H23.7103V1.16H38.5903V5L32.3183 12.136L32.4783 10.12C33.9076 10.12 35.1449 10.4187 36.1903 11.016C37.2569 11.592 38.0783 12.4027 38.6543 13.448C39.2516 14.4933 39.5503 15.7093 39.5503 17.096C39.5503 18.6747 39.1663 20.0933 38.3983 21.352C37.6303 22.6107 36.5849 23.6027 35.2623 24.328C33.9396 25.032 32.4356 25.384 30.7503 25.384ZM45.128 25V20.2H49.928V25H45.128Z" fill="#A9C2CB"/>
</svg>
