<svg width="52" height="52" viewBox="0 0 52 52" fill="none" xmlns="http://www.w3.org/2000/svg">
<rect width="52" height="52" rx="12" fill="#A9C2CB"/>
<g filter="url(#filter0_d_2_136)">
<path fill-rule="evenodd" clip-rule="evenodd" d="M23.4 14C22.0745 14 21 15.0745 21 16.4C21 17.7255 22.0745 18.8 23.4 18.8H28.2C29.5254 18.8 30.5999 17.7255 30.5999 16.4C30.5999 15.0745 29.5254 14 28.2 14H23.4ZM19.2 16.4001H19C16.7909 16.4001 15 18.1909 15 20.4001V34C15 36.2091 16.7909 38 19 38H32.5999C34.8091 38 36.5999 36.2091 36.5999 34V20.4001C36.5999 18.1909 34.8091 16.4001 32.5999 16.4001H32.3999C32.3999 18.7196 30.5195 20.6 28.2 20.6H23.4C21.0804 20.6 19.2 18.7196 19.2 16.4001ZM20.25 23.5999C20.25 23.1857 20.5858 22.8499 21 22.8499H30.5999C31.0142 22.8499 31.3499 23.1857 31.3499 23.5999C31.3499 24.0142 31.0142 24.3499 30.5999 24.3499H21C20.5858 24.3499 20.25 24.0142 20.25 23.5999ZM21 27.6499C20.5858 27.6499 20.25 27.9857 20.25 28.3999C20.25 28.8141 20.5858 29.1499 21 29.1499H30.5999C31.0142 29.1499 31.3499 28.8141 31.3499 28.3999C31.3499 27.9857 31.0142 27.6499 30.5999 27.6499H21ZM20.25 33.1999C20.25 32.7857 20.5858 32.4499 21 32.4499H25.8C26.2142 32.4499 26.55 32.7857 26.55 33.1999C26.55 33.6141 26.2142 33.9499 25.8 33.9499H21C20.5858 33.9499 20.25 33.6141 20.25 33.1999Z" fill="white"/>
</g>
<defs>
<filter id="filter0_d_2_136" x="8" y="11" width="35.5999" height="38" filterUnits="userSpaceOnUse" color-interpolation-filters="sRGB">
<feFlood flood-opacity="0" result="BackgroundImageFix"/>
<feColorMatrix in="SourceAlpha" type="matrix" values="0 0 0 0 0 0 0 0 0 0 0 0 0 0 0 0 0 0 127 0" result="hardAlpha"/>
<feOffset dy="4"/>
<feGaussianBlur stdDeviation="3.5"/>
<feComposite in2="hardAlpha" operator="out"/>
<feColorMatrix type="matrix" values="0 0 0 0 0.388451 0 0 0 0 0.459239 0 0 0 0 0.484722 0 0 0 0.8 0"/>
<feBlend mode="normal" in2="BackgroundImageFix" result="effect1_dropShadow_2_136"/>
<feBlend mode="normal" in="SourceGraphic" in2="effect1_dropShadow_2_136" result="shape"/>
</filter>
</defs>
</svg>
