<svg width="265" height="189" viewBox="0 0 265 189" fill="none" xmlns="http://www.w3.org/2000/svg">
<g filter="url(#filter0_dd_2_43)">
<rect x="27" y="7" width="211" height="135" rx="24" fill="white"/>
</g>
<path d="M104.386 54V40.59H113.224V42.48H106.51V46.332H112.864V48.222H106.51V52.11H113.224V54H104.386ZM114.027 54L117.429 49.122L114.027 44.262H116.421L119.211 48.33H118.059L120.849 44.262H123.243L119.823 49.122L123.225 54H120.831L118.077 49.914H119.193L116.421 54H114.027ZM128.852 54.216C127.88 54.216 127.016 53.994 126.26 53.55C125.516 53.094 124.934 52.482 124.514 51.714C124.094 50.934 123.884 50.064 123.884 49.104C123.884 48.12 124.094 47.25 124.514 46.494C124.946 45.738 125.522 45.144 126.242 44.712C126.962 44.268 127.778 44.046 128.69 44.046C129.422 44.046 130.076 44.172 130.652 44.424C131.228 44.676 131.714 45.024 132.11 45.468C132.506 45.9 132.806 46.398 133.01 46.962C133.226 47.526 133.334 48.126 133.334 48.762C133.334 48.918 133.328 49.08 133.316 49.248C133.304 49.416 133.28 49.572 133.244 49.716H125.486V48.096H132.092L131.12 48.834C131.24 48.246 131.198 47.724 130.994 47.268C130.802 46.8 130.502 46.434 130.094 46.17C129.698 45.894 129.23 45.756 128.69 45.756C128.15 45.756 127.67 45.894 127.25 46.17C126.83 46.434 126.506 46.818 126.278 47.322C126.05 47.814 125.96 48.414 126.008 49.122C125.948 49.782 126.038 50.358 126.278 50.85C126.53 51.342 126.878 51.726 127.322 52.002C127.778 52.278 128.294 52.416 128.87 52.416C129.458 52.416 129.956 52.284 130.364 52.02C130.784 51.756 131.114 51.414 131.354 50.994L133.01 51.804C132.818 52.26 132.518 52.674 132.11 53.046C131.714 53.406 131.234 53.694 130.67 53.91C130.118 54.114 129.512 54.216 128.852 54.216ZM135.319 54V44.262H137.263V46.224L137.083 45.936C137.299 45.3 137.647 44.844 138.127 44.568C138.607 44.28 139.183 44.136 139.855 44.136H140.449V45.99H139.603C138.931 45.99 138.385 46.2 137.965 46.62C137.557 47.028 137.353 47.616 137.353 48.384V54H135.319ZM146.466 54.216C145.494 54.216 144.63 53.994 143.874 53.55C143.13 53.094 142.536 52.482 142.092 51.714C141.66 50.946 141.444 50.076 141.444 49.104C141.444 48.144 141.66 47.28 142.092 46.512C142.524 45.744 143.118 45.144 143.874 44.712C144.63 44.268 145.494 44.046 146.466 44.046C147.126 44.046 147.744 44.166 148.32 44.406C148.896 44.634 149.394 44.952 149.814 45.36C150.246 45.768 150.564 46.242 150.768 46.782L148.986 47.61C148.782 47.106 148.452 46.704 147.996 46.404C147.552 46.092 147.042 45.936 146.466 45.936C145.914 45.936 145.416 46.074 144.972 46.35C144.54 46.614 144.198 46.992 143.946 47.484C143.694 47.964 143.568 48.51 143.568 49.122C143.568 49.734 143.694 50.286 143.946 50.778C144.198 51.258 144.54 51.636 144.972 51.912C145.416 52.188 145.914 52.326 146.466 52.326C147.054 52.326 147.564 52.176 147.996 51.876C148.44 51.564 148.77 51.15 148.986 50.634L150.768 51.48C150.576 51.996 150.264 52.464 149.832 52.884C149.412 53.292 148.914 53.616 148.338 53.856C147.762 54.096 147.138 54.216 146.466 54.216ZM152.756 54V44.262H154.79V54H152.756ZM152.756 42.93V40.59H154.79V42.93H152.756ZM160.768 54.216C159.772 54.216 158.896 53.97 158.14 53.478C157.396 52.986 156.874 52.326 156.574 51.498L158.14 50.76C158.404 51.312 158.764 51.75 159.22 52.074C159.688 52.398 160.204 52.56 160.768 52.56C161.248 52.56 161.638 52.452 161.938 52.236C162.238 52.02 162.388 51.726 162.388 51.354C162.388 51.114 162.322 50.922 162.19 50.778C162.058 50.622 161.89 50.496 161.686 50.4C161.494 50.304 161.296 50.232 161.092 50.184L159.562 49.752C158.722 49.512 158.092 49.152 157.672 48.672C157.264 48.18 157.06 47.61 157.06 46.962C157.06 46.374 157.21 45.864 157.51 45.432C157.81 44.988 158.224 44.646 158.752 44.406C159.28 44.166 159.874 44.046 160.534 44.046C161.422 44.046 162.214 44.268 162.91 44.712C163.606 45.144 164.098 45.75 164.386 46.53L162.82 47.268C162.628 46.8 162.322 46.428 161.902 46.152C161.494 45.876 161.032 45.738 160.516 45.738C160.072 45.738 159.718 45.846 159.454 46.062C159.19 46.266 159.058 46.536 159.058 46.872C159.058 47.1 159.118 47.292 159.238 47.448C159.358 47.592 159.514 47.712 159.706 47.808C159.898 47.892 160.096 47.964 160.3 48.024L161.884 48.492C162.688 48.72 163.306 49.08 163.738 49.572C164.17 50.052 164.386 50.628 164.386 51.3C164.386 51.876 164.23 52.386 163.918 52.83C163.618 53.262 163.198 53.604 162.658 53.856C162.118 54.096 161.488 54.216 160.768 54.216ZM166.379 54V44.262H168.413V54H166.379ZM166.379 42.93V40.59H168.413V42.93H166.379ZM170.792 54V44.262H172.736V46.17L172.502 45.918C172.742 45.306 173.126 44.844 173.654 44.532C174.182 44.208 174.794 44.046 175.49 44.046C176.21 44.046 176.846 44.202 177.398 44.514C177.95 44.826 178.382 45.258 178.694 45.81C179.006 46.362 179.162 46.998 179.162 47.718V54H177.146V48.258C177.146 47.766 177.056 47.352 176.876 47.016C176.696 46.668 176.438 46.404 176.102 46.224C175.778 46.032 175.406 45.936 174.986 45.936C174.566 45.936 174.188 46.032 173.852 46.224C173.528 46.404 173.276 46.668 173.096 47.016C172.916 47.364 172.826 47.778 172.826 48.258V54H170.792ZM186.036 57.96C185.328 57.96 184.674 57.846 184.074 57.618C183.474 57.39 182.958 57.072 182.526 56.664C182.094 56.268 181.77 55.8 181.554 55.26L183.426 54.486C183.594 54.942 183.9 55.32 184.344 55.62C184.8 55.92 185.358 56.07 186.018 56.07C186.534 56.07 186.996 55.968 187.404 55.764C187.812 55.572 188.136 55.284 188.376 54.9C188.616 54.528 188.736 54.078 188.736 53.55V51.354L189.096 51.768C188.76 52.392 188.292 52.866 187.692 53.19C187.104 53.514 186.438 53.676 185.694 53.676C184.794 53.676 183.984 53.466 183.264 53.046C182.544 52.626 181.974 52.05 181.554 51.318C181.146 50.586 180.942 49.764 180.942 48.852C180.942 47.928 181.146 47.106 181.554 46.386C181.974 45.666 182.538 45.096 183.246 44.676C183.954 44.256 184.764 44.046 185.676 44.046C186.42 44.046 187.08 44.208 187.656 44.532C188.244 44.844 188.724 45.3 189.096 45.9L188.826 46.404V44.262H190.752V53.55C190.752 54.39 190.548 55.14 190.14 55.8C189.744 56.472 189.192 57 188.484 57.384C187.776 57.768 186.96 57.96 186.036 57.96ZM185.928 51.786C186.468 51.786 186.948 51.66 187.368 51.408C187.788 51.144 188.118 50.796 188.358 50.364C188.61 49.92 188.736 49.422 188.736 48.87C188.736 48.318 188.61 47.82 188.358 47.376C188.106 46.932 187.77 46.584 187.35 46.332C186.93 46.068 186.456 45.936 185.928 45.936C185.376 45.936 184.884 46.068 184.452 46.332C184.02 46.584 183.678 46.932 183.426 47.376C183.186 47.808 183.066 48.306 183.066 48.87C183.066 49.41 183.186 49.902 183.426 50.346C183.678 50.79 184.02 51.144 184.452 51.408C184.884 51.66 185.376 51.786 185.928 51.786Z" fill="#020305"/>
<rect x="47" y="27" width="40" height="40" rx="12" fill="#A9C2CB"/>
<g filter="url(#filter1_d_2_43)">
<path d="M67.765 39.7023L67 40.5242L66.235 39.7023C64.1223 37.4326 60.6971 37.4326 58.5845 39.7023C56.4718 41.972 56.4718 45.6519 58.5845 47.9217L65.4699 55.3191C66.3149 56.227 67.685 56.227 68.5301 55.3191L75.4155 47.9217C77.5282 45.6519 77.5282 41.972 75.4155 39.7023C73.3029 37.4326 69.8777 37.4326 67.765 39.7023Z" fill="white"/>
</g>
<g clip-path="url(#clip0_2_43)">
<path d="M48.0357 119.255C48.0357 119.255 50.7711 121.939 59.8801 117.764C68.9891 113.59 64.439 120.956 68.7324 120.106C73.0258 119.255 73.2825 115.028 77.1598 116.466C81.0371 117.904 80.5768 121.342 83.7636 117.019C86.9505 112.695 87.1806 84.0261 87.1806 84.0261L89.4645 118.229C89.4645 118.229 98.3168 122.403 104.956 111.66C111.595 100.917 116.57 109.722 117.031 114.195C117.491 118.667 124.112 122.088 127.733 117.185C127.733 117.185 130.247 114.791 133.204 119.571C136.16 124.35 139.586 115.537 139.586 115.537C139.586 115.537 143.915 113.783 145.508 119.72L151.431 84.0437L154.848 119.273C157.194 119.806 159.652 119.553 161.837 118.553C164.023 117.553 165.811 115.863 166.922 113.748C171.251 106.135 177.633 103.601 182.644 115.089C182.644 115.089 187.185 124.315 197.507 116.405C197.507 116.405 203.916 111.774 207.838 117.598H216.92" stroke="url(#paint0_linear_2_43)" stroke-width="2.34" stroke-linecap="round" stroke-linejoin="round"/>
</g>
<defs>
<filter id="filter0_dd_2_43" x="0" y="0" width="265" height="189" filterUnits="userSpaceOnUse" color-interpolation-filters="sRGB">
<feFlood flood-opacity="0" result="BackgroundImageFix"/>
<feColorMatrix in="SourceAlpha" type="matrix" values="0 0 0 0 0 0 0 0 0 0 0 0 0 0 0 0 0 0 127 0" result="hardAlpha"/>
<feOffset dy="4"/>
<feGaussianBlur stdDeviation="2"/>
<feComposite in2="hardAlpha" operator="out"/>
<feColorMatrix type="matrix" values="0 0 0 0 1 0 0 0 0 1 0 0 0 0 1 0 0 0 0.25 0"/>
<feBlend mode="normal" in2="BackgroundImageFix" result="effect1_dropShadow_2_43"/>
<feColorMatrix in="SourceAlpha" type="matrix" values="0 0 0 0 0 0 0 0 0 0 0 0 0 0 0 0 0 0 127 0" result="hardAlpha"/>
<feMorphology radius="12" operator="erode" in="SourceAlpha" result="effect2_dropShadow_2_43"/>
<feOffset dy="20"/>
<feGaussianBlur stdDeviation="19.5"/>
<feComposite in2="hardAlpha" operator="out"/>
<feColorMatrix type="matrix" values="0 0 0 0 0.388235 0 0 0 0 0.458824 0 0 0 0 0.486275 0 0 0 0.4 0"/>
<feBlend mode="normal" in2="effect1_dropShadow_2_43" result="effect2_dropShadow_2_43"/>
<feBlend mode="normal" in="SourceGraphic" in2="effect2_dropShadow_2_43" result="shape"/>
</filter>
<filter id="filter1_d_2_43" x="50" y="35" width="34" height="32" filterUnits="userSpaceOnUse" color-interpolation-filters="sRGB">
<feFlood flood-opacity="0" result="BackgroundImageFix"/>
<feColorMatrix in="SourceAlpha" type="matrix" values="0 0 0 0 0 0 0 0 0 0 0 0 0 0 0 0 0 0 127 0" result="hardAlpha"/>
<feOffset dy="4"/>
<feGaussianBlur stdDeviation="3.5"/>
<feComposite in2="hardAlpha" operator="out"/>
<feColorMatrix type="matrix" values="0 0 0 0 0.388451 0 0 0 0 0.459239 0 0 0 0 0.484722 0 0 0 0.8 0"/>
<feBlend mode="normal" in2="BackgroundImageFix" result="effect1_dropShadow_2_43"/>
<feBlend mode="normal" in="SourceGraphic" in2="effect1_dropShadow_2_43" result="shape"/>
</filter>
<linearGradient id="paint0_linear_2_43" x1="47" y1="102.496" x2="217.991" y2="102.496" gradientUnits="userSpaceOnUse">
<stop stop-color="#171E27"/>
<stop offset="1" stop-color="#A9C2CB"/>
</linearGradient>
<clipPath id="clip0_2_43">
<rect width="171" height="39" fill="white" transform="translate(47 83)"/>
</clipPath>
</defs>
</svg>
