<svg width="309" height="221" viewBox="0 0 309 221" fill="none" xmlns="http://www.w3.org/2000/svg">
<g filter="url(#filter0_d_2_101)">
<rect x="27" y="7" width="255" height="167" rx="24" fill="white"/>
</g>
<path d="M109.084 54.216C108.244 54.216 107.464 54.06 106.744 53.748C106.024 53.424 105.412 52.986 104.908 52.434C104.404 51.882 104.032 51.246 103.792 50.526L105.592 49.77C105.916 50.598 106.39 51.234 107.014 51.678C107.638 52.122 108.358 52.344 109.174 52.344C109.654 52.344 110.074 52.272 110.434 52.128C110.794 51.972 111.07 51.756 111.262 51.48C111.466 51.204 111.568 50.886 111.568 50.526C111.568 50.034 111.43 49.644 111.154 49.356C110.878 49.068 110.47 48.84 109.93 48.672L107.41 47.88C106.402 47.568 105.634 47.094 105.106 46.458C104.578 45.81 104.314 45.054 104.314 44.19C104.314 43.434 104.5 42.774 104.872 42.21C105.244 41.634 105.754 41.184 106.402 40.86C107.062 40.536 107.812 40.374 108.652 40.374C109.456 40.374 110.188 40.518 110.848 40.806C111.508 41.082 112.072 41.466 112.54 41.958C113.02 42.45 113.368 43.02 113.584 43.668L111.82 44.442C111.556 43.734 111.142 43.188 110.578 42.804C110.026 42.42 109.384 42.228 108.652 42.228C108.208 42.228 107.818 42.306 107.482 42.462C107.146 42.606 106.882 42.822 106.69 43.11C106.51 43.386 106.42 43.71 106.42 44.082C106.42 44.514 106.558 44.898 106.834 45.234C107.11 45.57 107.53 45.822 108.094 45.99L110.434 46.728C111.502 47.052 112.306 47.52 112.846 48.132C113.386 48.732 113.656 49.482 113.656 50.382C113.656 51.126 113.458 51.786 113.062 52.362C112.678 52.938 112.144 53.394 111.46 53.73C110.776 54.054 109.984 54.216 109.084 54.216ZM115.842 57.6V44.262H117.786V46.278L117.552 45.81C117.912 45.258 118.392 44.826 118.992 44.514C119.592 44.202 120.276 44.046 121.044 44.046C121.968 44.046 122.796 44.268 123.528 44.712C124.272 45.156 124.854 45.762 125.274 46.53C125.706 47.298 125.922 48.162 125.922 49.122C125.922 50.082 125.706 50.946 125.274 51.714C124.854 52.482 124.278 53.094 123.546 53.55C122.814 53.994 121.98 54.216 121.044 54.216C120.288 54.216 119.598 54.06 118.974 53.748C118.362 53.436 117.888 52.986 117.552 52.398L117.876 52.02V57.6H115.842ZM120.846 52.326C121.422 52.326 121.932 52.188 122.376 51.912C122.82 51.636 123.168 51.258 123.42 50.778C123.684 50.286 123.816 49.734 123.816 49.122C123.816 48.51 123.684 47.964 123.42 47.484C123.168 47.004 122.82 46.626 122.376 46.35C121.932 46.074 121.422 45.936 120.846 45.936C120.282 45.936 119.772 46.074 119.316 46.35C118.872 46.626 118.518 47.004 118.254 47.484C118.002 47.964 117.876 48.51 117.876 49.122C117.876 49.734 118.002 50.286 118.254 50.778C118.518 51.258 118.872 51.636 119.316 51.912C119.772 52.188 120.282 52.326 120.846 52.326ZM130.817 54.216C130.157 54.216 129.575 54.102 129.071 53.874C128.579 53.634 128.195 53.31 127.919 52.902C127.643 52.482 127.505 51.99 127.505 51.426C127.505 50.898 127.619 50.424 127.847 50.004C128.087 49.584 128.453 49.23 128.945 48.942C129.437 48.654 130.055 48.45 130.799 48.33L134.183 47.772V49.374L131.195 49.896C130.655 49.992 130.259 50.166 130.007 50.418C129.755 50.658 129.629 50.97 129.629 51.354C129.629 51.726 129.767 52.032 130.043 52.272C130.331 52.5 130.697 52.614 131.141 52.614C131.693 52.614 132.173 52.494 132.581 52.254C133.001 52.014 133.325 51.696 133.553 51.3C133.781 50.892 133.895 50.442 133.895 49.95V47.448C133.895 46.968 133.715 46.578 133.355 46.278C133.007 45.966 132.539 45.81 131.951 45.81C131.411 45.81 130.937 45.954 130.529 46.242C130.133 46.518 129.839 46.878 129.647 47.322L127.955 46.476C128.135 45.996 128.429 45.576 128.837 45.216C129.245 44.844 129.719 44.556 130.259 44.352C130.811 44.148 131.393 44.046 132.005 44.046C132.773 44.046 133.451 44.19 134.039 44.478C134.639 44.766 135.101 45.168 135.425 45.684C135.761 46.188 135.929 46.776 135.929 47.448V54H133.985V52.236L134.399 52.29C134.171 52.686 133.877 53.028 133.517 53.316C133.169 53.604 132.767 53.826 132.311 53.982C131.867 54.138 131.369 54.216 130.817 54.216ZM142.933 54.216C141.961 54.216 141.097 53.994 140.341 53.55C139.597 53.094 139.003 52.482 138.559 51.714C138.127 50.946 137.911 50.076 137.911 49.104C137.911 48.144 138.127 47.28 138.559 46.512C138.991 45.744 139.585 45.144 140.341 44.712C141.097 44.268 141.961 44.046 142.933 44.046C143.593 44.046 144.211 44.166 144.787 44.406C145.363 44.634 145.861 44.952 146.281 45.36C146.713 45.768 147.031 46.242 147.235 46.782L145.453 47.61C145.249 47.106 144.919 46.704 144.463 46.404C144.019 46.092 143.509 45.936 142.933 45.936C142.381 45.936 141.883 46.074 141.439 46.35C141.007 46.614 140.665 46.992 140.413 47.484C140.161 47.964 140.035 48.51 140.035 49.122C140.035 49.734 140.161 50.286 140.413 50.778C140.665 51.258 141.007 51.636 141.439 51.912C141.883 52.188 142.381 52.326 142.933 52.326C143.521 52.326 144.031 52.176 144.463 51.876C144.907 51.564 145.237 51.15 145.453 50.634L147.235 51.48C147.043 51.996 146.731 52.464 146.299 52.884C145.879 53.292 145.381 53.616 144.805 53.856C144.229 54.096 143.605 54.216 142.933 54.216ZM153.795 54.216C152.823 54.216 151.959 53.994 151.203 53.55C150.459 53.094 149.877 52.482 149.457 51.714C149.037 50.934 148.827 50.064 148.827 49.104C148.827 48.12 149.037 47.25 149.457 46.494C149.889 45.738 150.465 45.144 151.185 44.712C151.905 44.268 152.721 44.046 153.633 44.046C154.365 44.046 155.019 44.172 155.595 44.424C156.171 44.676 156.657 45.024 157.053 45.468C157.449 45.9 157.749 46.398 157.953 46.962C158.169 47.526 158.277 48.126 158.277 48.762C158.277 48.918 158.271 49.08 158.259 49.248C158.247 49.416 158.223 49.572 158.187 49.716H150.429V48.096H157.035L156.063 48.834C156.183 48.246 156.141 47.724 155.937 47.268C155.745 46.8 155.445 46.434 155.037 46.17C154.641 45.894 154.173 45.756 153.633 45.756C153.093 45.756 152.613 45.894 152.193 46.17C151.773 46.434 151.449 46.818 151.221 47.322C150.993 47.814 150.903 48.414 150.951 49.122C150.891 49.782 150.981 50.358 151.221 50.85C151.473 51.342 151.821 51.726 152.265 52.002C152.721 52.278 153.237 52.416 153.813 52.416C154.401 52.416 154.899 52.284 155.307 52.02C155.727 51.756 156.057 51.414 156.297 50.994L157.953 51.804C157.761 52.26 157.461 52.674 157.053 53.046C156.657 53.406 156.177 53.694 155.613 53.91C155.061 54.114 154.455 54.216 153.795 54.216ZM162.62 54L159.272 44.262H161.432L163.988 52.02H163.232L165.842 44.262H167.696L170.288 52.02H169.532L172.106 44.262H174.266L170.9 54H169.064L166.436 46.062H167.102L164.474 54H162.62ZM178.225 54.216C177.565 54.216 176.983 54.102 176.479 53.874C175.987 53.634 175.603 53.31 175.327 52.902C175.051 52.482 174.913 51.99 174.913 51.426C174.913 50.898 175.027 50.424 175.255 50.004C175.495 49.584 175.861 49.23 176.353 48.942C176.845 48.654 177.463 48.45 178.207 48.33L181.591 47.772V49.374L178.603 49.896C178.063 49.992 177.667 50.166 177.415 50.418C177.163 50.658 177.037 50.97 177.037 51.354C177.037 51.726 177.175 52.032 177.451 52.272C177.739 52.5 178.105 52.614 178.549 52.614C179.101 52.614 179.581 52.494 179.989 52.254C180.409 52.014 180.733 51.696 180.961 51.3C181.189 50.892 181.303 50.442 181.303 49.95V47.448C181.303 46.968 181.123 46.578 180.763 46.278C180.415 45.966 179.947 45.81 179.359 45.81C178.819 45.81 178.345 45.954 177.937 46.242C177.541 46.518 177.247 46.878 177.055 47.322L175.363 46.476C175.543 45.996 175.837 45.576 176.245 45.216C176.653 44.844 177.127 44.556 177.667 44.352C178.219 44.148 178.801 44.046 179.413 44.046C180.181 44.046 180.859 44.19 181.447 44.478C182.047 44.766 182.509 45.168 182.833 45.684C183.169 46.188 183.337 46.776 183.337 47.448V54H181.393V52.236L181.807 52.29C181.579 52.686 181.285 53.028 180.925 53.316C180.577 53.604 180.175 53.826 179.719 53.982C179.275 54.138 178.777 54.216 178.225 54.216ZM185.715 54V40.374H187.749V54H185.715ZM190.127 54V40.374H192.161V49.5L191.369 49.302L196.247 44.262H198.785L195.113 48.168L198.947 54H196.607L193.187 48.834L194.393 48.672L191.513 51.732L192.161 50.382V54H190.127ZM203.94 54.216C202.944 54.216 202.068 53.97 201.312 53.478C200.568 52.986 200.046 52.326 199.746 51.498L201.312 50.76C201.576 51.312 201.936 51.75 202.392 52.074C202.86 52.398 203.376 52.56 203.94 52.56C204.42 52.56 204.81 52.452 205.11 52.236C205.41 52.02 205.56 51.726 205.56 51.354C205.56 51.114 205.494 50.922 205.362 50.778C205.23 50.622 205.062 50.496 204.858 50.4C204.666 50.304 204.468 50.232 204.264 50.184L202.734 49.752C201.894 49.512 201.264 49.152 200.844 48.672C200.436 48.18 200.232 47.61 200.232 46.962C200.232 46.374 200.382 45.864 200.682 45.432C200.982 44.988 201.396 44.646 201.924 44.406C202.452 44.166 203.046 44.046 203.706 44.046C204.594 44.046 205.386 44.268 206.082 44.712C206.778 45.144 207.27 45.75 207.558 46.53L205.992 47.268C205.8 46.8 205.494 46.428 205.074 46.152C204.666 45.876 204.204 45.738 203.688 45.738C203.244 45.738 202.89 45.846 202.626 46.062C202.362 46.266 202.23 46.536 202.23 46.872C202.23 47.1 202.29 47.292 202.41 47.448C202.53 47.592 202.686 47.712 202.878 47.808C203.07 47.892 203.268 47.964 203.472 48.024L205.056 48.492C205.86 48.72 206.478 49.08 206.91 49.572C207.342 50.052 207.558 50.628 207.558 51.3C207.558 51.876 207.402 52.386 207.09 52.83C206.79 53.262 206.37 53.604 205.83 53.856C205.29 54.096 204.66 54.216 203.94 54.216Z" fill="#020305"/>
<g clip-path="url(#clip0_2_101)">
<path d="M184.638 83.3966H47.3616V153.596H184.638V83.3966Z" stroke="#A9C2CB" stroke-miterlimit="10"/>
<path d="M61.333 83.3966V153.596" stroke="#A9C2CB" stroke-miterlimit="10"/>
<path d="M77.2713 83.3966V153.596" stroke="#A9C2CB" stroke-miterlimit="10"/>
<path d="M93.2169 83.3966V153.596" stroke="#A9C2CB" stroke-miterlimit="10"/>
<path d="M109.155 83.3966V153.596" stroke="#A9C2CB" stroke-miterlimit="10"/>
<path d="M125.094 83.3966V153.596" stroke="#A9C2CB" stroke-miterlimit="10"/>
<path d="M141.039 83.3966V153.596" stroke="#A9C2CB" stroke-miterlimit="10"/>
<path d="M156.978 83.3966V153.596" stroke="#A9C2CB" stroke-miterlimit="10"/>
<path d="M172.916 83.3966V153.596" stroke="#A9C2CB" stroke-miterlimit="10"/>
<path d="M184.638 83.3966H47.3616" stroke="#A9C2CB" stroke-width="1.11" stroke-miterlimit="10"/>
<path d="M184.638 93.4261H47.3616" stroke="#A9C2CB" stroke-width="1.11" stroke-miterlimit="10"/>
<path d="M184.638 103.456H47.3616" stroke="#A9C2CB" stroke-width="1.11" stroke-miterlimit="10"/>
<path d="M184.638 113.485H47.3616" stroke="#A9C2CB" stroke-width="1.11" stroke-miterlimit="10"/>
<path d="M184.638 123.515H47.3616" stroke="#A9C2CB" stroke-width="1.11" stroke-miterlimit="10"/>
<path d="M184.638 133.537H47.3616" stroke="#A9C2CB" stroke-width="1.11" stroke-miterlimit="10"/>
<path d="M184.638 143.567H47.3616" stroke="#A9C2CB" stroke-width="1.11" stroke-miterlimit="10"/>
<path d="M184.638 153.596H47.3616" stroke="#A9C2CB" stroke-width="1.11" stroke-miterlimit="10"/>
<path d="M172.916 102.85H140.981L109.307 113.341L92.9638 143.285L77.2858 123.45L61.333 143.285" stroke="url(#paint0_linear_2_101)" stroke-miterlimit="10"/>
<path d="M63.3795 143.278C63.3795 143.682 63.2595 144.076 63.0346 144.412C62.8097 144.748 62.4901 145.009 62.1161 145.164C61.7422 145.318 61.3307 145.358 60.9337 145.28C60.5367 145.201 60.172 145.007 59.8858 144.721C59.5996 144.436 59.4047 144.072 59.3257 143.676C59.2468 143.281 59.2873 142.87 59.4422 142.497C59.5971 142.125 59.8594 141.806 60.196 141.582C60.5325 141.357 60.9282 141.238 61.333 141.238C61.8757 141.238 62.3963 141.453 62.7801 141.835C63.1639 142.218 63.3795 142.737 63.3795 143.278Z" fill="url(#paint1_linear_2_101)"/>
<path d="M77.2858 125.498C78.4161 125.498 79.3323 124.584 79.3323 123.457C79.3323 122.33 78.4161 121.417 77.2858 121.417C76.1555 121.417 75.2393 122.33 75.2393 123.457C75.2393 124.584 76.1555 125.498 77.2858 125.498Z" fill="url(#paint2_linear_2_101)"/>
<path d="M95.0176 143.278C95.019 143.684 94.8996 144.081 94.6745 144.419C94.4494 144.756 94.1287 145.02 93.7531 145.176C93.3776 145.332 92.964 145.373 92.565 145.294C92.1659 145.215 91.7993 145.02 91.5116 144.733C91.224 144.447 91.0282 144.081 90.9492 143.683C90.8702 143.285 90.9115 142.873 91.0678 142.498C91.2241 142.124 91.4885 141.804 91.8274 141.58C92.1662 141.355 92.5643 141.236 92.9711 141.238C93.5133 141.24 94.0327 141.455 94.4161 141.837C94.7995 142.22 95.0157 142.738 95.0176 143.278Z" fill="url(#paint3_linear_2_101)"/>
<path d="M111.354 113.341C111.354 113.745 111.234 114.139 111.009 114.475C110.784 114.81 110.464 115.072 110.09 115.226C109.716 115.381 109.305 115.421 108.908 115.342C108.511 115.264 108.146 115.069 107.86 114.784C107.574 114.498 107.379 114.135 107.3 113.739C107.221 113.343 107.262 112.933 107.416 112.56C107.571 112.187 107.834 111.869 108.17 111.644C108.507 111.42 108.902 111.3 109.307 111.3C109.576 111.299 109.843 111.352 110.091 111.454C110.34 111.556 110.566 111.706 110.756 111.896C110.947 112.086 111.097 112.311 111.2 112.559C111.302 112.807 111.355 113.073 111.354 113.341Z" fill="url(#paint4_linear_2_101)"/>
<path d="M140.981 104.89C142.112 104.89 143.028 103.977 143.028 102.85C143.028 101.723 142.112 100.809 140.981 100.809C139.851 100.809 138.935 101.723 138.935 102.85C138.935 103.977 139.851 104.89 140.981 104.89Z" fill="url(#paint5_linear_2_101)"/>
<path d="M174.97 102.85C174.971 103.257 174.851 103.654 174.625 103.993C174.399 104.331 174.077 104.594 173.7 104.75C173.323 104.905 172.909 104.945 172.509 104.864C172.109 104.784 171.743 104.586 171.456 104.297C171.169 104.008 170.975 103.641 170.899 103.241C170.822 102.842 170.867 102.429 171.026 102.055C171.186 101.681 171.454 101.363 171.795 101.141C172.137 100.919 172.537 100.804 172.945 100.81C173.483 100.817 173.997 101.035 174.376 101.417C174.755 101.798 174.968 102.313 174.97 102.85Z" fill="url(#paint6_linear_2_101)"/>
</g>
<g clip-path="url(#clip1_2_101)">
<path d="M227.544 119.004L194.811 108.5C196.982 101.629 201.339 95.6326 207.235 91.3995C213.131 87.1664 220.253 84.9222 227.544 85V119.004Z" fill="#171E27" fill-opacity="0.6"/>
<path d="M227.543 119.004L247.794 146.509C240.402 151.81 231.18 153.994 222.157 152.583C213.133 151.172 205.047 146.281 199.677 138.985C196.404 134.683 194.247 129.656 193.395 124.342C192.543 119.028 193.022 113.589 194.789 108.5L227.543 119.004Z" fill="#171E27" fill-opacity="0.8"/>
<path d="M227.544 119.004L247.794 91.4977C251.454 94.1215 254.554 97.4314 256.918 101.238C259.281 105.045 260.862 109.274 261.569 113.684C262.276 118.094 262.096 122.598 261.039 126.939C259.983 131.28 258.07 135.374 255.41 138.985C253.309 141.89 250.736 144.433 247.794 146.509L227.544 119.004Z" fill="#A9C2CB" fill-opacity="0.6"/>
<path d="M227.544 119.004V85C234.831 84.8891 241.951 87.1611 247.794 91.4618L227.544 119.004Z" fill="#171E27" fill-opacity="0.2"/>
</g>
<rect x="47" y="27" width="40" height="40" rx="12" fill="#A9C2CB"/>
<g filter="url(#filter1_d_2_101)">
<path fill-rule="evenodd" clip-rule="evenodd" d="M68.9872 37.1974C72.9158 37.9895 76.0104 41.0842 76.8025 45.0128C77.0209 46.0955 76.1046 47 75 47H69C67.8954 47 67 46.1046 67 45V39C67 37.8954 67.9045 36.9791 68.9872 37.1974ZM57 48C57 43.1972 60.762 39.2731 65.5 39.0137V45C65.5 46.933 67.067 48.5 69 48.5H74.9863C74.7269 53.238 70.8028 57 66 57C61.0294 57 57 52.9706 57 48Z" fill="white"/>
</g>
<defs>
<filter id="filter0_d_2_101" x="0" y="0" width="309" height="221" filterUnits="userSpaceOnUse" color-interpolation-filters="sRGB">
<feFlood flood-opacity="0" result="BackgroundImageFix"/>
<feColorMatrix in="SourceAlpha" type="matrix" values="0 0 0 0 0 0 0 0 0 0 0 0 0 0 0 0 0 0 127 0" result="hardAlpha"/>
<feMorphology radius="12" operator="erode" in="SourceAlpha" result="effect1_dropShadow_2_101"/>
<feOffset dy="20"/>
<feGaussianBlur stdDeviation="19.5"/>
<feComposite in2="hardAlpha" operator="out"/>
<feColorMatrix type="matrix" values="0 0 0 0 0.388235 0 0 0 0 0.458824 0 0 0 0 0.486275 0 0 0 0.4 0"/>
<feBlend mode="normal" in2="BackgroundImageFix" result="effect1_dropShadow_2_101"/>
<feBlend mode="normal" in="SourceGraphic" in2="effect1_dropShadow_2_101" result="shape"/>
</filter>
<filter id="filter1_d_2_101" x="50" y="34.165" width="33.835" height="33.835" filterUnits="userSpaceOnUse" color-interpolation-filters="sRGB">
<feFlood flood-opacity="0" result="BackgroundImageFix"/>
<feColorMatrix in="SourceAlpha" type="matrix" values="0 0 0 0 0 0 0 0 0 0 0 0 0 0 0 0 0 0 127 0" result="hardAlpha"/>
<feOffset dy="4"/>
<feGaussianBlur stdDeviation="3.5"/>
<feComposite in2="hardAlpha" operator="out"/>
<feColorMatrix type="matrix" values="0 0 0 0 0.388451 0 0 0 0 0.459239 0 0 0 0 0.484722 0 0 0 0.8 0"/>
<feBlend mode="normal" in2="BackgroundImageFix" result="effect1_dropShadow_2_101"/>
<feBlend mode="normal" in="SourceGraphic" in2="effect1_dropShadow_2_101" result="shape"/>
</filter>
<linearGradient id="paint0_linear_2_101" x1="61.0509" y1="123.212" x2="172.916" y2="123.212" gradientUnits="userSpaceOnUse">
<stop stop-color="#171E27"/>
<stop offset="1" stop-color="#A9C2CB"/>
</linearGradient>
<linearGradient id="paint1_linear_2_101" x1="59.2864" y1="143.286" x2="63.3795" y2="143.286" gradientUnits="userSpaceOnUse">
<stop stop-color="#171E27"/>
<stop offset="1" stop-color="#A9C2CB"/>
</linearGradient>
<linearGradient id="paint2_linear_2_101" x1="75.2393" y1="123.457" x2="79.3323" y2="123.457" gradientUnits="userSpaceOnUse">
<stop stop-color="#171E27"/>
<stop offset="1" stop-color="#A9C2CB"/>
</linearGradient>
<linearGradient id="paint3_linear_2_101" x1="90.9173" y1="143.285" x2="95.0176" y2="143.285" gradientUnits="userSpaceOnUse">
<stop stop-color="#A9C2CB"/>
<stop offset="0.0001" stop-color="#171E27"/>
<stop offset="1" stop-color="#A9C2CB"/>
</linearGradient>
<linearGradient id="paint4_linear_2_101" x1="107.261" y1="113.341" x2="111.354" y2="113.341" gradientUnits="userSpaceOnUse">
<stop stop-color="#171E27"/>
<stop offset="1" stop-color="#A9C2CB"/>
</linearGradient>
<linearGradient id="paint5_linear_2_101" x1="138.928" y1="102.85" x2="143.028" y2="102.85" gradientUnits="userSpaceOnUse">
<stop stop-color="#171E27"/>
<stop offset="1" stop-color="#A9C2CB"/>
</linearGradient>
<linearGradient id="paint6_linear_2_101" x1="170.87" y1="102.85" x2="174.97" y2="102.85" gradientUnits="userSpaceOnUse">
<stop stop-color="#171E27"/>
<stop offset="1" stop-color="#A9C2CB"/>
</linearGradient>
<clipPath id="clip0_2_101">
<rect width="138" height="71" fill="white" transform="translate(47 83)"/>
</clipPath>
<clipPath id="clip1_2_101">
<rect width="69" height="68" fill="white" transform="translate(193 85)"/>
</clipPath>
</defs>
</svg>
