<svg width="52" height="52" viewBox="0 0 52 52" fill="none" xmlns="http://www.w3.org/2000/svg">
<g id="Group 137">
<g id="Group 123">
<rect id="Rectangle 16" width="52" height="52" rx="12" fill="#A9C2CB"/>
</g>
<g id="chart-pie" filter="url(#filter0_d_2_170)">
<path id="combo shape" fill-rule="evenodd" clip-rule="evenodd" d="M28.8291 20.7219C28.2309 20.4021 27.5845 20.1877 26.9182 20.0859V14C28.5818 14.1251 30.2046 14.5956 31.6817 15.3851C33.4245 16.3167 34.9107 17.6637 36.0087 19.3068C37.1066 20.95 37.7823 22.8385 37.976 24.8052C37.9851 24.8974 37.9931 24.9896 38 25.0818H31.9141C31.7824 24.2199 31.4631 23.3959 30.9772 22.6687C30.4322 21.853 29.6943 21.1843 28.8291 20.7219ZM19.3407 15.9914C21.0662 14.8384 23.0564 14.1549 25.1157 14V20.0859C24.256 20.2173 23.4317 20.5357 22.7026 21.0228C21.7215 21.6783 20.9569 22.61 20.5054 23.7001C20.0539 24.7902 19.9357 25.9897 20.1659 27.1469C20.337 28.007 20.6948 28.815 21.2097 29.5157L16.9063 33.8191C15.5597 32.2535 14.6358 30.3628 14.2309 28.3275C13.7672 25.9964 14.0052 23.5802 14.9147 21.3844C15.8243 19.1886 17.3645 17.3118 19.3407 15.9914ZM18.1809 35.0937C19.4458 36.1816 20.9259 36.9964 22.5286 37.4826C24.4197 38.0562 26.4231 38.1546 28.3613 37.7691C30.2815 37.3871 32.079 36.5419 33.5977 35.3072L28.1816 31.5421C27.8583 31.6681 27.5235 31.7659 27.1808 31.8341C26.2186 32.0255 25.224 31.9766 24.2852 31.6918C23.6361 31.4949 23.0274 31.1894 22.4843 30.7903L18.1809 35.0937ZM31.5285 28.266C31.7128 27.821 31.8419 27.357 31.9141 26.8843H38C37.9047 28.1514 37.6087 29.3998 37.1191 30.5818C36.5917 31.8551 35.851 33.0239 34.9328 34.04L29.881 30.5282C30.6014 29.9158 31.1663 29.1405 31.5285 28.266Z" fill="white"/>
</g>
</g>
<defs>
<filter id="filter0_d_2_170" x="7" y="11" width="38" height="38" filterUnits="userSpaceOnUse" color-interpolation-filters="sRGB">
<feFlood flood-opacity="0" result="BackgroundImageFix"/>
<feColorMatrix in="SourceAlpha" type="matrix" values="0 0 0 0 0 0 0 0 0 0 0 0 0 0 0 0 0 0 127 0" result="hardAlpha"/>
<feOffset dy="4"/>
<feGaussianBlur stdDeviation="3.5"/>
<feComposite in2="hardAlpha" operator="out"/>
<feColorMatrix type="matrix" values="0 0 0 0 0.388451 0 0 0 0 0.459239 0 0 0 0 0.484722 0 0 0 0.8 0"/>
<feBlend mode="normal" in2="BackgroundImageFix" result="effect1_dropShadow_2_170"/>
<feBlend mode="normal" in="SourceGraphic" in2="effect1_dropShadow_2_170" result="shape"/>
</filter>
</defs>
</svg>
