<svg width="52" height="52" viewBox="0 0 52 52" fill="none" xmlns="http://www.w3.org/2000/svg">
<g id="Group 136">
<rect id="Rectangle 15" width="52" height="52" rx="12" fill="#A9C2CB"/>
<g id="telescope" filter="url(#filter0_d_2_165)">
<path id="Combo shape" fill-rule="evenodd" clip-rule="evenodd" d="M32.3709 14.2461C31.5208 14.7526 31.2295 15.8745 31.7203 16.7519L34.6827 22.0474C35.1735 22.9248 36.2606 23.2254 37.1107 22.7188C37.9608 22.2123 38.2521 21.0904 37.7613 20.213L34.7989 14.9175C34.3081 14.0401 33.221 13.7395 32.3709 14.2461ZM29.9711 17.0883L21.1624 22.3371C20.0289 23.0125 19.6405 24.5084 20.295 25.6782L20.4639 25.9803C20.457 25.9841 20.4501 25.9881 20.4433 25.9922L16.0781 28.5932L15.6247 27.7826C15.3908 27.3645 14.8622 27.2152 14.4441 27.449C14.026 27.6829 13.8767 28.2115 14.1106 28.6296L15.888 31.8069C16.1219 32.225 16.6504 32.3743 17.0685 32.1404C17.4867 31.9065 17.636 31.378 17.4021 30.9599L16.9255 30.1079L21.3111 27.4947L21.4799 27.7964C22.1343 28.9662 23.5837 29.3671 24.7172 28.6917L26.3021 27.7473L21.6916 36.7365C21.473 37.1628 21.6413 37.6856 22.0676 37.9042C22.4939 38.1229 23.0167 37.9545 23.2353 37.5282L28.3882 27.4816L33.5411 37.5282C33.7597 37.9545 34.2826 38.1229 34.7088 37.9042C35.1351 37.6856 35.3035 37.1628 35.0848 36.7365L29.4977 25.8432L33.5397 23.4347C33.4021 23.2691 33.2777 23.0887 33.1689 22.8944L30.2065 17.5989C30.1137 17.433 30.0354 17.2623 29.9711 17.0883Z" fill="white"/>
</g>
</g>
<defs>
<filter id="filter0_d_2_165" x="7" y="11" width="37.9997" height="38" filterUnits="userSpaceOnUse" color-interpolation-filters="sRGB">
<feFlood flood-opacity="0" result="BackgroundImageFix"/>
<feColorMatrix in="SourceAlpha" type="matrix" values="0 0 0 0 0 0 0 0 0 0 0 0 0 0 0 0 0 0 127 0" result="hardAlpha"/>
<feOffset dy="4"/>
<feGaussianBlur stdDeviation="3.5"/>
<feComposite in2="hardAlpha" operator="out"/>
<feColorMatrix type="matrix" values="0 0 0 0 0.388451 0 0 0 0 0.459239 0 0 0 0 0.484722 0 0 0 0.8 0"/>
<feBlend mode="normal" in2="BackgroundImageFix" result="effect1_dropShadow_2_165"/>
<feBlend mode="normal" in="SourceGraphic" in2="effect1_dropShadow_2_165" result="shape"/>
</filter>
</defs>
</svg>
